<?xml version="1.0" standalone="no"?>
<!DOCTYPE svg PUBLIC "-//W3C//DTD SVG 20010904//EN"
 "http://www.w3.org/TR/2001/REC-SVG-20010904/DTD/svg10.dtd">
<svg version="1.0" xmlns="http://www.w3.org/2000/svg"
 width="512.000000pt" height="512.000000pt" viewBox="0 0 512.000000 512.000000"
 preserveAspectRatio="xMidYMid meet">

<g transform="translate(0.000000,512.000000) scale(0.100000,-0.100000)"
fill="#000000" stroke="none">
<path d="M2439 5110 c-561 -57 -1013 -464 -1129 -1018 -27 -127 -39 -483 -18
-522 20 -36 55 -50 106 -41 l42 8 0 -103 c0 -57 -2 -104 -4 -104 -2 0 -20 7
-40 15 -31 13 -41 14 -64 3 -39 -19 -52 -53 -52 -144 0 -72 13 -126 125 -535
119 -434 126 -455 158 -482 49 -42 213 -123 328 -162 l104 -34 3 -128 c2 -70
-2 -164 -8 -208 -13 -93 -39 -206 -51 -219 -4 -4 -200 -32 -435 -62 -263 -33
-454 -61 -498 -74 -184 -56 -342 -190 -426 -365 -25 -53 -76 -212 -149 -469
-98 -344 -109 -392 -98 -415 23 -49 36 -51 425 -51 l362 0 0 138 c0 132 1 140
23 160 32 30 87 29 115 -1 20 -22 22 -33 22 -160 l0 -137 1280 0 1280 0 0 138
c0 132 1 140 23 160 32 30 87 29 115 -1 20 -22 22 -33 22 -160 l0 -138 381 3
381 3 20 25 c14 17 18 34 15 55 -15 88 -229 795 -260 858 -84 169 -243 303
-423 357 -44 13 -235 41 -498 74 -235 30 -431 58 -436 62 -4 5 -18 52 -31 104
-18 79 -22 125 -23 273 l-1 178 104 34 c115 39 279 120 328 162 32 27 39 48
158 482 112 409 125 463 125 535 0 91 -13 125 -52 144 -23 11 -33 10 -64 -3
-20 -8 -38 -15 -40 -15 -2 0 -4 52 -4 115 l0 115 40 -21 c34 -18 42 -19 67 -7
51 24 55 44 49 263 -6 216 -24 332 -72 467 -154 427 -514 740 -952 827 -116
23 -269 32 -373 21z m820 -942 c38 -170 105 -304 214 -424 l47 -52 0 -224 0
-223 -112 -56 -113 -56 -367 32 -368 32 -367 -32 -368 -32 -112 56 -113 56 0
162 0 163 28 6 c512 114 1065 346 1497 628 55 36 103 66 106 66 3 0 16 -46 28
-102z m-1648 -1098 l160 -81 -6 -87 c-9 -120 -33 -262 -57 -335 -20 -63 -67
-162 -72 -155 -7 6 -196 705 -196 722 0 9 2 16 5 16 3 0 77 -36 166 -80z
m2069 64 c0 -17 -189 -716 -196 -722 -5 -7 -52 92 -72 155 -24 73 -48 215 -57
335 l-6 87 158 80 c87 44 161 80 166 80 4 1 7 -6 7 -15z m-663 -356 c30 -28
31 -83 1 -115 l-21 -23 -436 0 c-433 0 -435 0 -458 22 -30 28 -31 83 -1 115
l21 23 436 0 c433 0 435 0 458 -22z m0 -240 c30 -28 31 -83 1 -115 l-21 -23
-436 0 c-433 0 -435 0 -458 22 -30 28 -31 83 -1 115 l21 23 436 0 c433 0 435
0 458 -22z m-722 -599 c165 -20 506 -12 645 16 l25 5 1 -137 c2 -145 20 -280
55 -399 20 -68 20 -74 5 -126 -43 -148 -184 -282 -341 -324 -64 -18 -186 -18
-250 0 -157 42 -294 171 -342 322 -16 51 -15 55 5 126 36 121 54 255 56 401
l1 137 25 -5 c14 -2 66 -10 115 -16z"/>
</g>
</svg>
